<svg width="886" height="181" viewBox="0 0 886 181" fill="none" xmlns="http://www.w3.org/2000/svg">
<path fill-rule="evenodd" clip-rule="evenodd" d="M127.141 88.8451C119.496 84.4315 109.721 87.0507 105.308 94.6953C100.894 102.34 103.513 112.115 111.158 116.529C118.802 120.942 128.578 118.323 132.991 110.678C137.405 103.034 134.786 93.2587 127.141 88.8451ZM125.732 104.432C124.391 103.658 122.676 104.118 121.902 105.458C121.128 106.799 121.588 108.514 122.928 109.288C124.269 110.062 125.984 109.603 126.758 108.262C127.532 106.921 127.073 105.207 125.732 104.432ZM110.517 98.8851C111.291 97.5442 113.005 97.0848 114.346 97.859C115.687 98.6331 116.147 100.348 115.372 101.688C114.598 103.029 112.884 103.489 111.543 102.715C110.202 101.94 109.743 100.226 110.517 98.8851ZM124.727 93.0252C127.64 94.7069 128.638 98.4315 126.957 101.344L116.408 95.2543C118.09 92.3415 121.815 91.3435 124.727 93.0252Z" fill="#A3A1A1"/>
<path fill-rule="evenodd" clip-rule="evenodd" d="M127.141 88.8451C119.496 84.4315 109.721 87.0507 105.308 94.6953C100.894 102.34 103.513 112.115 111.158 116.529C118.802 120.942 128.578 118.323 132.991 110.678C137.405 103.034 134.786 93.2587 127.141 88.8451ZM125.732 104.432C124.391 103.658 122.676 104.118 121.902 105.458C121.128 106.799 121.588 108.514 122.928 109.288C124.269 110.062 125.984 109.603 126.758 108.262C127.532 106.921 127.073 105.207 125.732 104.432ZM110.517 98.8851C111.291 97.5442 113.005 97.0848 114.346 97.859C115.687 98.6331 116.147 100.348 115.372 101.688C114.598 103.029 112.884 103.489 111.543 102.715C110.202 101.94 109.743 100.226 110.517 98.8851ZM124.727 93.0252C127.64 94.7069 128.638 98.4315 126.957 101.344L116.408 95.2543C118.09 92.3415 121.815 91.3435 124.727 93.0252Z" fill="url(#paint0_radial_35_2)"/>
<path fill-rule="evenodd" clip-rule="evenodd" d="M127.141 88.8451C119.496 84.4315 109.721 87.0507 105.308 94.6953C100.894 102.34 103.513 112.115 111.158 116.529C118.802 120.942 128.578 118.323 132.991 110.678C137.405 103.034 134.786 93.2587 127.141 88.8451ZM125.732 104.432C124.391 103.658 122.676 104.118 121.902 105.458C121.128 106.799 121.588 108.514 122.928 109.288C124.269 110.062 125.984 109.603 126.758 108.262C127.532 106.921 127.073 105.207 125.732 104.432ZM110.517 98.8851C111.291 97.5442 113.005 97.0848 114.346 97.859C115.687 98.6331 116.147 100.348 115.372 101.688C114.598 103.029 112.884 103.489 111.543 102.715C110.202 101.94 109.743 100.226 110.517 98.8851ZM124.727 93.0252C127.64 94.7069 128.638 98.4315 126.957 101.344L116.408 95.2543C118.09 92.3415 121.815 91.3435 124.727 93.0252Z" fill="url(#paint1_radial_35_2)"/>
<path fill-rule="evenodd" clip-rule="evenodd" d="M153.974 135.595C158.698 138.322 164.738 136.704 167.466 131.98C170.193 127.256 168.575 121.216 163.851 118.488C159.127 115.761 153.086 117.379 150.359 122.103C147.632 126.827 149.25 132.868 153.974 135.595ZM154.845 125.963C155.673 126.441 156.733 126.158 157.211 125.329C157.69 124.5 157.406 123.441 156.577 122.963C155.749 122.484 154.689 122.768 154.211 123.597C153.732 124.425 154.016 125.485 154.845 125.963ZM164.247 129.391C163.769 130.22 162.709 130.503 161.881 130.025C161.052 129.547 160.768 128.487 161.246 127.659C161.725 126.83 162.784 126.546 163.613 127.025C164.441 127.503 164.725 128.562 164.247 129.391ZM160.606 131.635L154.088 127.871C153.049 129.671 153.666 131.973 155.466 133.012C157.265 134.051 159.567 133.435 160.606 131.635Z" fill="#A3A1A1"/>
<path fill-rule="evenodd" clip-rule="evenodd" d="M153.974 135.595C158.698 138.322 164.738 136.704 167.466 131.98C170.193 127.256 168.575 121.216 163.851 118.488C159.127 115.761 153.086 117.379 150.359 122.103C147.632 126.827 149.25 132.868 153.974 135.595ZM154.845 125.963C155.673 126.441 156.733 126.158 157.211 125.329C157.69 124.5 157.406 123.441 156.577 122.963C155.749 122.484 154.689 122.768 154.211 123.597C153.732 124.425 154.016 125.485 154.845 125.963ZM164.247 129.391C163.769 130.22 162.709 130.503 161.881 130.025C161.052 129.547 160.768 128.487 161.246 127.659C161.725 126.83 162.784 126.546 163.613 127.025C164.441 127.503 164.725 128.562 164.247 129.391ZM160.606 131.635L154.088 127.871C153.049 129.671 153.666 131.973 155.466 133.012C157.265 134.051 159.567 133.435 160.606 131.635Z" fill="url(#paint2_radial_35_2)"/>
<path fill-rule="evenodd" clip-rule="evenodd" d="M153.974 135.595C158.698 138.322 164.738 136.704 167.466 131.98C170.193 127.256 168.575 121.216 163.851 118.488C159.127 115.761 153.086 117.379 150.359 122.103C147.632 126.827 149.25 132.868 153.974 135.595ZM154.845 125.963C155.673 126.441 156.733 126.158 157.211 125.329C157.69 124.5 157.406 123.441 156.577 122.963C155.749 122.484 154.689 122.768 154.211 123.597C153.732 124.425 154.016 125.485 154.845 125.963ZM164.247 129.391C163.769 130.22 162.709 130.503 161.881 130.025C161.052 129.547 160.768 128.487 161.246 127.659C161.725 126.83 162.784 126.546 163.613 127.025C164.441 127.503 164.725 128.562 164.247 129.391ZM160.606 131.635L154.088 127.871C153.049 129.671 153.666 131.973 155.466 133.012C157.265 134.051 159.567 133.435 160.606 131.635Z" fill="url(#paint3_radial_35_2)"/>
<path fill-rule="evenodd" clip-rule="evenodd" d="M0.59082 25.9838C0.59082 11.997 11.9294 0.658447 25.9162 0.658447H155.075C169.062 0.658447 180.401 11.997 180.401 25.9838V155.143C180.401 169.13 169.062 180.468 155.075 180.468H29.5006C47.6409 179.094 64.8117 169.075 74.5943 152.131C80.9646 141.097 81.7799 128.856 81.9275 117.071C82.8373 105.924 88.1343 93.5628 91.8685 86.3372L94.092 82.486C104.874 63.8111 98.4755 39.9315 79.8005 29.1495C61.1255 18.3675 37.1223 24.6934 26.3403 43.3684C26.2504 43.5241 26.1585 43.6784 26.0667 43.8325C25.8836 44.1402 25.7006 44.4475 25.5354 44.7625C18.36 57.4533 7.70009 66.9313 0.59082 71.9859V25.9838ZM171.275 82.8318C167.761 88.9195 162.703 93.5607 156.881 96.5467C152.529 99.4819 145.336 105.594 140.6 113.971C140.498 114.165 140.385 114.355 140.271 114.545C140.215 114.64 140.158 114.736 140.102 114.832C133.439 126.373 118.605 130.283 107.064 123.619C95.5227 116.956 91.5685 102.199 98.2317 90.6575L99.6058 88.2774C101.914 83.812 105.187 76.1725 105.749 69.2841C105.841 62.0009 106.344 54.4357 110.281 47.6169C120.006 30.7739 141.543 25.003 158.386 34.7274C175.229 44.4517 181 65.9888 171.275 82.8318ZM126.702 139.311C128.874 135.549 131.999 132.681 135.596 130.836C138.286 129.022 142.731 125.245 145.657 120.069C145.72 119.949 145.79 119.832 145.86 119.714L145.92 119.613C145.929 119.598 145.938 119.583 145.947 119.567C145.953 119.557 145.959 119.547 145.965 119.537C150.082 112.405 159.249 109.989 166.381 114.107C173.512 118.224 175.956 127.343 171.838 134.475L170.989 135.946C169.563 138.705 167.54 143.426 167.193 147.683C167.137 152.183 166.825 156.858 164.392 161.072C158.383 171.48 145.075 175.046 134.667 169.037C124.259 163.028 120.693 149.719 126.702 139.311Z" fill="#A3A1A1"/>
<path fill-rule="evenodd" clip-rule="evenodd" d="M0.59082 25.9838C0.59082 11.997 11.9294 0.658447 25.9162 0.658447H155.075C169.062 0.658447 180.401 11.997 180.401 25.9838V155.143C180.401 169.13 169.062 180.468 155.075 180.468H29.5006C47.6409 179.094 64.8117 169.075 74.5943 152.131C80.9646 141.097 81.7799 128.856 81.9275 117.071C82.8373 105.924 88.1343 93.5628 91.8685 86.3372L94.092 82.486C104.874 63.8111 98.4755 39.9315 79.8005 29.1495C61.1255 18.3675 37.1223 24.6934 26.3403 43.3684C26.2504 43.5241 26.1585 43.6784 26.0667 43.8325C25.8836 44.1402 25.7006 44.4475 25.5354 44.7625C18.36 57.4533 7.70009 66.9313 0.59082 71.9859V25.9838ZM171.275 82.8318C167.761 88.9195 162.703 93.5607 156.881 96.5467C152.529 99.4819 145.336 105.594 140.6 113.971C140.498 114.165 140.385 114.355 140.271 114.545C140.215 114.64 140.158 114.736 140.102 114.832C133.439 126.373 118.605 130.283 107.064 123.619C95.5227 116.956 91.5685 102.199 98.2317 90.6575L99.6058 88.2774C101.914 83.812 105.187 76.1725 105.749 69.2841C105.841 62.0009 106.344 54.4357 110.281 47.6169C120.006 30.7739 141.543 25.003 158.386 34.7274C175.229 44.4517 181 65.9888 171.275 82.8318ZM126.702 139.311C128.874 135.549 131.999 132.681 135.596 130.836C138.286 129.022 142.731 125.245 145.657 120.069C145.72 119.949 145.79 119.832 145.86 119.714L145.92 119.613C145.929 119.598 145.938 119.583 145.947 119.567C145.953 119.557 145.959 119.547 145.965 119.537C150.082 112.405 159.249 109.989 166.381 114.107C173.512 118.224 175.956 127.343 171.838 134.475L170.989 135.946C169.563 138.705 167.54 143.426 167.193 147.683C167.137 152.183 166.825 156.858 164.392 161.072C158.383 171.48 145.075 175.046 134.667 169.037C124.259 163.028 120.693 149.719 126.702 139.311Z" fill="url(#paint4_radial_35_2)"/>
<path fill-rule="evenodd" clip-rule="evenodd" d="M0.59082 25.9838C0.59082 11.997 11.9294 0.658447 25.9162 0.658447H155.075C169.062 0.658447 180.401 11.997 180.401 25.9838V155.143C180.401 169.13 169.062 180.468 155.075 180.468H29.5006C47.6409 179.094 64.8117 169.075 74.5943 152.131C80.9646 141.097 81.7799 128.856 81.9275 117.071C82.8373 105.924 88.1343 93.5628 91.8685 86.3372L94.092 82.486C104.874 63.8111 98.4755 39.9315 79.8005 29.1495C61.1255 18.3675 37.1223 24.6934 26.3403 43.3684C26.2504 43.5241 26.1585 43.6784 26.0667 43.8325C25.8836 44.1402 25.7006 44.4475 25.5354 44.7625C18.36 57.4533 7.70009 66.9313 0.59082 71.9859V25.9838ZM171.275 82.8318C167.761 88.9195 162.703 93.5607 156.881 96.5467C152.529 99.4819 145.336 105.594 140.6 113.971C140.498 114.165 140.385 114.355 140.271 114.545C140.215 114.64 140.158 114.736 140.102 114.832C133.439 126.373 118.605 130.283 107.064 123.619C95.5227 116.956 91.5685 102.199 98.2317 90.6575L99.6058 88.2774C101.914 83.812 105.187 76.1725 105.749 69.2841C105.841 62.0009 106.344 54.4357 110.281 47.6169C120.006 30.7739 141.543 25.003 158.386 34.7274C175.229 44.4517 181 65.9888 171.275 82.8318ZM126.702 139.311C128.874 135.549 131.999 132.681 135.596 130.836C138.286 129.022 142.731 125.245 145.657 120.069C145.72 119.949 145.79 119.832 145.86 119.714L145.92 119.613C145.929 119.598 145.938 119.583 145.947 119.567C145.953 119.557 145.959 119.547 145.965 119.537C150.082 112.405 159.249 109.989 166.381 114.107C173.512 118.224 175.956 127.343 171.838 134.475L170.989 135.946C169.563 138.705 167.54 143.426 167.193 147.683C167.137 152.183 166.825 156.858 164.392 161.072C158.383 171.48 145.075 175.046 134.667 169.037C124.259 163.028 120.693 149.719 126.702 139.311Z" fill="url(#paint5_radial_35_2)"/>
<path fill-rule="evenodd" clip-rule="evenodd" d="M47.3134 85.4186C59.6832 92.5604 75.5005 88.3221 82.6423 75.9523C89.784 63.5824 85.5458 47.7651 73.1759 40.6234C60.8061 33.4816 44.9888 37.7198 37.847 50.0897C30.7053 62.4596 34.9435 78.2769 47.3134 85.4186ZM49.5936 60.1965C51.7632 61.4491 54.5375 60.7057 55.7901 58.5361C57.0427 56.3665 56.2994 53.5922 54.1297 52.3396C51.9601 51.0869 49.1858 51.8303 47.9332 53.9999C46.6806 56.1695 47.4239 58.9438 49.5936 60.1965ZM74.2132 69.1727C72.9606 71.3423 70.1863 72.0857 68.0166 70.833C65.847 69.5804 65.1036 66.8061 66.3563 64.6365C67.6089 62.4669 70.3832 61.7235 72.5528 62.9761C74.7225 64.2288 75.4658 67.003 74.2132 69.1727ZM64.6802 75.0478L47.6117 65.1933C44.8905 69.9066 46.5054 75.9335 51.2187 78.6547C55.932 81.376 61.9589 79.7611 64.6802 75.0478Z" fill="#A3A1A1"/>
<path fill-rule="evenodd" clip-rule="evenodd" d="M47.3134 85.4186C59.6832 92.5604 75.5005 88.3221 82.6423 75.9523C89.784 63.5824 85.5458 47.7651 73.1759 40.6234C60.8061 33.4816 44.9888 37.7198 37.847 50.0897C30.7053 62.4596 34.9435 78.2769 47.3134 85.4186ZM49.5936 60.1965C51.7632 61.4491 54.5375 60.7057 55.7901 58.5361C57.0427 56.3665 56.2994 53.5922 54.1297 52.3396C51.9601 51.0869 49.1858 51.8303 47.9332 53.9999C46.6806 56.1695 47.4239 58.9438 49.5936 60.1965ZM74.2132 69.1727C72.9606 71.3423 70.1863 72.0857 68.0166 70.833C65.847 69.5804 65.1036 66.8061 66.3563 64.6365C67.6089 62.4669 70.3832 61.7235 72.5528 62.9761C74.7225 64.2288 75.4658 67.003 74.2132 69.1727ZM64.6802 75.0478L47.6117 65.1933C44.8905 69.9066 46.5054 75.9335 51.2187 78.6547C55.932 81.376 61.9589 79.7611 64.6802 75.0478Z" fill="url(#paint6_radial_35_2)"/>
<path fill-rule="evenodd" clip-rule="evenodd" d="M47.3134 85.4186C59.6832 92.5604 75.5005 88.3221 82.6423 75.9523C89.784 63.5824 85.5458 47.7651 73.1759 40.6234C60.8061 33.4816 44.9888 37.7198 37.847 50.0897C30.7053 62.4596 34.9435 78.2769 47.3134 85.4186ZM49.5936 60.1965C51.7632 61.4491 54.5375 60.7057 55.7901 58.5361C57.0427 56.3665 56.2994 53.5922 54.1297 52.3396C51.9601 51.0869 49.1858 51.8303 47.9332 53.9999C46.6806 56.1695 47.4239 58.9438 49.5936 60.1965ZM74.2132 69.1727C72.9606 71.3423 70.1863 72.0857 68.0166 70.833C65.847 69.5804 65.1036 66.8061 66.3563 64.6365C67.6089 62.4669 70.3832 61.7235 72.5528 62.9761C74.7225 64.2288 75.4658 67.003 74.2132 69.1727ZM64.6802 75.0478L47.6117 65.1933C44.8905 69.9066 46.5054 75.9335 51.2187 78.6547C55.932 81.376 61.9589 79.7611 64.6802 75.0478Z" fill="url(#paint7_radial_35_2)"/>
<path d="M223.31 152.025C222.307 151.92 221.542 151.471 221.014 150.68C220.487 149.888 220.276 149.018 220.381 148.068C220.645 146.432 221.146 144.929 221.885 143.557C222.624 142.185 223.151 141.156 223.468 140.47C223.837 139.785 224.206 139.019 224.576 138.175L227.583 131.211L260.11 33.7874L295.091 101.374L329.043 33.7874L369.643 150.838H327.143L307.516 90.3737L277.126 153.687L245.153 96.7051L234.073 131.29C232.332 135.142 231.092 138.413 230.353 141.104C229.614 143.794 229.008 145.878 228.533 147.356C227.478 150.68 225.737 152.236 223.31 152.025Z" fill="black"/>
<path d="M223.31 152.025C222.307 151.92 221.542 151.471 221.014 150.68C220.487 149.888 220.276 149.018 220.381 148.068C220.645 146.432 221.146 144.929 221.885 143.557C222.624 142.185 223.151 141.156 223.468 140.47C223.837 139.785 224.206 139.019 224.576 138.175L227.583 131.211L260.11 33.7874L295.091 101.374L329.043 33.7874L369.643 150.838H327.143L307.516 90.3737L277.126 153.687L245.153 96.7051L234.073 131.29C232.332 135.142 231.092 138.413 230.353 141.104C229.614 143.794 229.008 145.878 228.533 147.356C227.478 150.68 225.737 152.236 223.31 152.025Z" fill="url(#paint8_radial_35_2)"/>
<path d="M405.335 136.751C395.68 136.751 389.085 136.672 385.55 136.513L383.255 141.974C382.569 143.504 381.936 145.113 381.356 146.802C380.142 150.073 378.454 151.709 376.29 151.709C375.288 151.709 374.47 151.392 373.837 150.759C373.204 150.126 372.887 149.466 372.887 148.78C372.887 147.62 373.389 146.327 374.391 144.902C375.974 142.686 377.53 139.785 379.06 136.197C374.523 135.775 372.254 134.456 372.254 132.24C372.254 130.024 373.547 128.916 376.132 128.916C377.715 128.916 379.562 129.18 381.672 129.707L421.164 33.7874L475.297 150.838H434.064L427.495 136.751H405.335ZM388.083 130.34C393.148 130.762 397.685 130.973 401.695 130.973H424.883L405.098 88.316L388.083 130.34Z" fill="black"/>
<path d="M405.335 136.751C395.68 136.751 389.085 136.672 385.55 136.513L383.255 141.974C382.569 143.504 381.936 145.113 381.356 146.802C380.142 150.073 378.454 151.709 376.29 151.709C375.288 151.709 374.47 151.392 373.837 150.759C373.204 150.126 372.887 149.466 372.887 148.78C372.887 147.62 373.389 146.327 374.391 144.902C375.974 142.686 377.53 139.785 379.06 136.197C374.523 135.775 372.254 134.456 372.254 132.24C372.254 130.024 373.547 128.916 376.132 128.916C377.715 128.916 379.562 129.18 381.672 129.707L421.164 33.7874L475.297 150.838H434.064L427.495 136.751H405.335ZM388.083 130.34C393.148 130.762 397.685 130.973 401.695 130.973H424.883L405.098 88.316L388.083 130.34Z" fill="url(#paint9_radial_35_2)"/>
<path d="M574.145 40.9101C574.145 43.3372 571.586 44.5507 566.468 44.5507H548.107V150.838H507.587V44.5507H495.715C491.653 44.5507 488.856 44.7353 487.326 45.1047C485.321 45.5267 483.87 45.7378 482.974 45.7378C480.283 45.7378 478.937 44.6826 478.937 42.5721C478.937 40.0923 481.549 38.8525 486.772 38.8525H557.367C561.007 38.8525 563.698 38.6942 565.439 38.3776C567.55 38.0083 569.132 37.8236 570.188 37.8236C572.826 37.8236 574.145 38.8525 574.145 40.9101Z" fill="black"/>
<path d="M574.145 40.9101C574.145 43.3372 571.586 44.5507 566.468 44.5507H548.107V150.838H507.587V44.5507H495.715C491.653 44.5507 488.856 44.7353 487.326 45.1047C485.321 45.5267 483.87 45.7378 482.974 45.7378C480.283 45.7378 478.937 44.6826 478.937 42.5721C478.937 40.0923 481.549 38.8525 486.772 38.8525H557.367C561.007 38.8525 563.698 38.6942 565.439 38.3776C567.55 38.0083 569.132 37.8236 570.188 37.8236C572.826 37.8236 574.145 38.8525 574.145 40.9101Z" fill="url(#paint10_radial_35_2)"/>
<path d="M644.344 112.454L650.833 112.929C660.119 112.929 668.007 109.684 674.496 103.195C680.986 96.7051 684.231 88.6326 684.231 78.9773C684.231 66.3146 678.665 56.9232 667.532 50.8029C661.412 47.4261 654.869 45.474 647.905 44.9464C644.95 44.6826 642.207 44.5507 639.674 44.5507H634.292C633.184 44.5507 632.208 44.577 631.364 44.6298V150.838H591.002V38.8525C603.348 38.8525 613.346 38.8525 620.997 38.8525C628.647 38.8525 633.633 38.8788 635.954 38.9316C638.276 38.9844 640.334 39.0635 642.128 39.169C643.974 39.2218 645.689 39.3009 647.272 39.4065C649.593 39.6175 652.864 40.1187 657.085 40.9101C661.359 41.7016 665.58 43.2053 669.748 45.4212C673.916 47.6372 677.504 50.3808 680.511 53.652C687.001 60.6164 690.246 68.8999 690.246 78.5025C690.246 87.9995 687.238 96.3885 681.224 103.67C675.05 111.109 666.82 115.91 656.531 118.073C661.438 133.269 667.69 142.343 675.288 145.298C677.609 146.195 679.931 146.643 682.252 146.643L688.505 145.14C690.457 145.14 691.433 146.142 691.433 148.147C691.433 150.944 688.162 152.342 681.619 152.342C676.871 152.342 672.518 151.023 668.561 148.385C662.388 144.691 657.138 137.516 652.812 126.858L650.517 121.239C650.147 120.342 649.804 119.788 649.488 119.577C649.224 119.366 648.723 119.26 647.984 119.26C647.298 119.26 646.691 119.313 646.164 119.419L644.264 119.498C642.154 119.498 640.703 119.102 639.912 118.311C639.173 117.519 638.804 116.702 638.804 115.857C638.804 113.589 640.65 112.454 644.344 112.454Z" fill="black"/>
<path d="M644.344 112.454L650.833 112.929C660.119 112.929 668.007 109.684 674.496 103.195C680.986 96.7051 684.231 88.6326 684.231 78.9773C684.231 66.3146 678.665 56.9232 667.532 50.8029C661.412 47.4261 654.869 45.474 647.905 44.9464C644.95 44.6826 642.207 44.5507 639.674 44.5507H634.292C633.184 44.5507 632.208 44.577 631.364 44.6298V150.838H591.002V38.8525C603.348 38.8525 613.346 38.8525 620.997 38.8525C628.647 38.8525 633.633 38.8788 635.954 38.9316C638.276 38.9844 640.334 39.0635 642.128 39.169C643.974 39.2218 645.689 39.3009 647.272 39.4065C649.593 39.6175 652.864 40.1187 657.085 40.9101C661.359 41.7016 665.58 43.2053 669.748 45.4212C673.916 47.6372 677.504 50.3808 680.511 53.652C687.001 60.6164 690.246 68.8999 690.246 78.5025C690.246 87.9995 687.238 96.3885 681.224 103.67C675.05 111.109 666.82 115.91 656.531 118.073C661.438 133.269 667.69 142.343 675.288 145.298C677.609 146.195 679.931 146.643 682.252 146.643L688.505 145.14C690.457 145.14 691.433 146.142 691.433 148.147C691.433 150.944 688.162 152.342 681.619 152.342C676.871 152.342 672.518 151.023 668.561 148.385C662.388 144.691 657.138 137.516 652.812 126.858L650.517 121.239C650.147 120.342 649.804 119.788 649.488 119.577C649.224 119.366 648.723 119.26 647.984 119.26C647.298 119.26 646.691 119.313 646.164 119.419L644.264 119.498C642.154 119.498 640.703 119.102 639.912 118.311C639.173 117.519 638.804 116.702 638.804 115.857C638.804 113.589 640.65 112.454 644.344 112.454Z" fill="url(#paint11_radial_35_2)"/>
<path d="M708.527 38.8525H748.89V150.838H708.527V38.8525Z" fill="black"/>
<path d="M708.527 38.8525H748.89V150.838H708.527V38.8525Z" fill="url(#paint12_radial_35_2)"/>
<path d="M787.273 136.592C782.05 131.475 777.882 125.302 774.769 118.073C771.709 110.792 770.179 102.878 770.179 94.3308C770.179 85.7307 771.63 78.0276 774.532 71.2214C777.486 64.3625 781.549 58.4268 786.719 53.4145C797.799 42.7568 811.702 37.4279 828.427 37.4279C845.047 37.4279 858.659 42.6776 869.264 53.1771C880.028 63.8349 885.409 77.6583 885.409 94.6474C885.409 111.584 879.896 125.513 868.869 136.434C861.957 143.188 853.462 147.857 843.385 150.442C838.373 151.709 832.542 152.342 825.895 152.342C819.299 152.342 812.52 150.996 805.555 148.305C798.591 145.562 792.497 141.658 787.273 136.592ZM828.348 43.2053C825.446 43.2053 822.729 43.4163 820.196 43.8384V145.931C822.623 146.353 825.341 146.564 828.348 146.564C842.435 146.564 854.307 141.869 863.962 132.477C874.039 122.716 879.078 110.106 879.078 94.6474C879.078 79.927 874.356 67.6864 864.911 57.9256C855.362 48.112 843.174 43.2053 828.348 43.2053Z" fill="black"/>
<path d="M787.273 136.592C782.05 131.475 777.882 125.302 774.769 118.073C771.709 110.792 770.179 102.878 770.179 94.3308C770.179 85.7307 771.63 78.0276 774.532 71.2214C777.486 64.3625 781.549 58.4268 786.719 53.4145C797.799 42.7568 811.702 37.4279 828.427 37.4279C845.047 37.4279 858.659 42.6776 869.264 53.1771C880.028 63.8349 885.409 77.6583 885.409 94.6474C885.409 111.584 879.896 125.513 868.869 136.434C861.957 143.188 853.462 147.857 843.385 150.442C838.373 151.709 832.542 152.342 825.895 152.342C819.299 152.342 812.52 150.996 805.555 148.305C798.591 145.562 792.497 141.658 787.273 136.592ZM828.348 43.2053C825.446 43.2053 822.729 43.4163 820.196 43.8384V145.931C822.623 146.353 825.341 146.564 828.348 146.564C842.435 146.564 854.307 141.869 863.962 132.477C874.039 122.716 879.078 110.106 879.078 94.6474C879.078 79.927 874.356 67.6864 864.911 57.9256C855.362 48.112 843.174 43.2053 828.348 43.2053Z" fill="url(#paint13_radial_35_2)"/>
<defs>
<radialGradient id="paint0_radial_35_2" cx="0" cy="0" r="1" gradientUnits="userSpaceOnUse" gradientTransform="translate(-211.818 130.309) rotate(-5.02392) scale(1172.91 392.965)">
<stop stop-color="#FF1B90"/>
<stop offset="0.24392" stop-color="#FF1B90"/>
<stop offset="0.436673" stop-color="#F80261"/>
<stop offset="0.688476" stop-color="#ED00C0"/>
<stop offset="0.776787" stop-color="#C500E9"/>
<stop offset="0.893155" stop-color="#7017FF"/>
</radialGradient>
<radialGradient id="paint1_radial_35_2" cx="0" cy="0" r="1" gradientUnits="userSpaceOnUse" gradientTransform="translate(-109.431 34.7112) rotate(2.13952) scale(729.257 94.535)">
<stop stop-color="#FFD600"/>
<stop offset="0.484375" stop-color="#FF6930"/>
<stop offset="0.734375" stop-color="#FE3B36"/>
<stop offset="1" stop-color="#FE3B36" stop-opacity="0"/>
</radialGradient>
<radialGradient id="paint2_radial_35_2" cx="0" cy="0" r="1" gradientUnits="userSpaceOnUse" gradientTransform="translate(-211.818 130.309) rotate(-5.02392) scale(1172.91 392.965)">
<stop stop-color="#FF1B90"/>
<stop offset="0.24392" stop-color="#FF1B90"/>
<stop offset="0.436673" stop-color="#F80261"/>
<stop offset="0.688476" stop-color="#ED00C0"/>
<stop offset="0.776787" stop-color="#C500E9"/>
<stop offset="0.893155" stop-color="#7017FF"/>
</radialGradient>
<radialGradient id="paint3_radial_35_2" cx="0" cy="0" r="1" gradientUnits="userSpaceOnUse" gradientTransform="translate(-109.431 34.7112) rotate(2.13952) scale(729.257 94.535)">
<stop stop-color="#FFD600"/>
<stop offset="0.484375" stop-color="#FF6930"/>
<stop offset="0.734375" stop-color="#FE3B36"/>
<stop offset="1" stop-color="#FE3B36" stop-opacity="0"/>
</radialGradient>
<radialGradient id="paint4_radial_35_2" cx="0" cy="0" r="1" gradientUnits="userSpaceOnUse" gradientTransform="translate(-211.818 130.309) rotate(-5.02392) scale(1172.91 392.965)">
<stop stop-color="#FF1B90"/>
<stop offset="0.24392" stop-color="#FF1B90"/>
<stop offset="0.436673" stop-color="#F80261"/>
<stop offset="0.688476" stop-color="#ED00C0"/>
<stop offset="0.776787" stop-color="#C500E9"/>
<stop offset="0.893155" stop-color="#7017FF"/>
</radialGradient>
<radialGradient id="paint5_radial_35_2" cx="0" cy="0" r="1" gradientUnits="userSpaceOnUse" gradientTransform="translate(-109.431 34.7112) rotate(2.13952) scale(729.257 94.535)">
<stop stop-color="#FFD600"/>
<stop offset="0.484375" stop-color="#FF6930"/>
<stop offset="0.734375" stop-color="#FE3B36"/>
<stop offset="1" stop-color="#FE3B36" stop-opacity="0"/>
</radialGradient>
<radialGradient id="paint6_radial_35_2" cx="0" cy="0" r="1" gradientUnits="userSpaceOnUse" gradientTransform="translate(-211.818 130.309) rotate(-5.02392) scale(1172.91 392.965)">
<stop stop-color="#FF1B90"/>
<stop offset="0.24392" stop-color="#FF1B90"/>
<stop offset="0.436673" stop-color="#F80261"/>
<stop offset="0.688476" stop-color="#ED00C0"/>
<stop offset="0.776787" stop-color="#C500E9"/>
<stop offset="0.893155" stop-color="#7017FF"/>
</radialGradient>
<radialGradient id="paint7_radial_35_2" cx="0" cy="0" r="1" gradientUnits="userSpaceOnUse" gradientTransform="translate(-109.431 34.7112) rotate(2.13952) scale(729.257 94.535)">
<stop stop-color="#FFD600"/>
<stop offset="0.484375" stop-color="#FF6930"/>
<stop offset="0.734375" stop-color="#FE3B36"/>
<stop offset="1" stop-color="#FE3B36" stop-opacity="0"/>
</radialGradient>
<radialGradient id="paint8_radial_35_2" cx="0" cy="0" r="1" gradientUnits="userSpaceOnUse" gradientTransform="translate(57.2527 160.82) rotate(-7.2159) scale(898.351 429.94)">
<stop stop-color="#FF1B90"/>
<stop offset="0.24392" stop-color="#FF1B90"/>
<stop offset="0.436673" stop-color="#F80261"/>
<stop offset="0.688476" stop-color="#ED00C0"/>
<stop offset="0.776787" stop-color="#C500E9"/>
<stop offset="0.893155" stop-color="#7017FF"/>
</radialGradient>
<radialGradient id="paint9_radial_35_2" cx="0" cy="0" r="1" gradientUnits="userSpaceOnUse" gradientTransform="translate(57.2527 160.82) rotate(-7.2159) scale(898.351 429.94)">
<stop stop-color="#FF1B90"/>
<stop offset="0.24392" stop-color="#FF1B90"/>
<stop offset="0.436673" stop-color="#F80261"/>
<stop offset="0.688476" stop-color="#ED00C0"/>
<stop offset="0.776787" stop-color="#C500E9"/>
<stop offset="0.893155" stop-color="#7017FF"/>
</radialGradient>
<radialGradient id="paint10_radial_35_2" cx="0" cy="0" r="1" gradientUnits="userSpaceOnUse" gradientTransform="translate(57.2527 160.82) rotate(-7.2159) scale(898.351 429.94)">
<stop stop-color="#FF1B90"/>
<stop offset="0.24392" stop-color="#FF1B90"/>
<stop offset="0.436673" stop-color="#F80261"/>
<stop offset="0.688476" stop-color="#ED00C0"/>
<stop offset="0.776787" stop-color="#C500E9"/>
<stop offset="0.893155" stop-color="#7017FF"/>
</radialGradient>
<radialGradient id="paint11_radial_35_2" cx="0" cy="0" r="1" gradientUnits="userSpaceOnUse" gradientTransform="translate(57.2527 160.82) rotate(-7.2159) scale(898.351 429.94)">
<stop stop-color="#FF1B90"/>
<stop offset="0.24392" stop-color="#FF1B90"/>
<stop offset="0.436673" stop-color="#F80261"/>
<stop offset="0.688476" stop-color="#ED00C0"/>
<stop offset="0.776787" stop-color="#C500E9"/>
<stop offset="0.893155" stop-color="#7017FF"/>
</radialGradient>
<radialGradient id="paint12_radial_35_2" cx="0" cy="0" r="1" gradientUnits="userSpaceOnUse" gradientTransform="translate(57.2527 160.82) rotate(-7.2159) scale(898.351 429.94)">
<stop stop-color="#FF1B90"/>
<stop offset="0.24392" stop-color="#FF1B90"/>
<stop offset="0.436673" stop-color="#F80261"/>
<stop offset="0.688476" stop-color="#ED00C0"/>
<stop offset="0.776787" stop-color="#C500E9"/>
<stop offset="0.893155" stop-color="#7017FF"/>
</radialGradient>
<radialGradient id="paint13_radial_35_2" cx="0" cy="0" r="1" gradientUnits="userSpaceOnUse" gradientTransform="translate(57.2527 160.82) rotate(-7.2159) scale(898.351 429.94)">
<stop stop-color="#FF1B90"/>
<stop offset="0.24392" stop-color="#FF1B90"/>
<stop offset="0.436673" stop-color="#F80261"/>
<stop offset="0.688476" stop-color="#ED00C0"/>
<stop offset="0.776787" stop-color="#C500E9"/>
<stop offset="0.893155" stop-color="#7017FF"/>
</radialGradient>
</defs>
</svg>
